<svg width="283" height="96" viewBox="0 0 283 96" fill="none" xmlns="http://www.w3.org/2000/svg">
<rect width="283" height="96" rx="48" fill="#F13C20"/>
<path d="M62.6667 45.5167V44.5279C62.6667 43.2386 62.175 42.0022 61.2999 41.0905C60.4247 40.1789 59.2377 39.6667 58 39.6667C56.7624 39.6667 55.5754 40.1789 54.7002 41.0905C53.825 42.0022 53.3334 43.2386 53.3334 44.5279V45.5167C52.7396 45.7867 52.2342 46.231 51.879 46.7954C51.5238 47.3597 51.3342 48.0197 51.3334 48.6945V52.8612C51.3344 53.7817 51.686 54.6643 52.3109 55.3152C52.9357 55.9661 53.783 56.3323 54.6667 56.3334H61.3334C62.2171 56.3323 63.0643 55.9661 63.6892 55.3152C64.3141 54.6643 64.6656 53.7817 64.6667 52.8612V48.6945C64.6659 48.0197 64.4762 47.3597 64.121 46.7954C63.7658 46.231 63.2605 45.7867 62.6667 45.5167ZM54.6667 44.5279C54.6667 43.607 55.0179 42.7238 55.643 42.0726C56.2681 41.4215 57.116 41.0556 58 41.0556C58.8841 41.0556 59.7319 41.4215 60.3571 42.0726C60.9822 42.7238 61.3334 43.607 61.3334 44.5279V45.2223H54.6667V44.5279ZM63.3334 52.8612C63.3334 53.4137 63.1227 53.9436 62.7476 54.3343C62.3725 54.725 61.8638 54.9445 61.3334 54.9445H54.6667C54.1363 54.9445 53.6276 54.725 53.2525 54.3343C52.8774 53.9436 52.6667 53.4137 52.6667 52.8612V48.6945C52.6667 48.142 52.8774 47.6121 53.2525 47.2214C53.6276 46.8307 54.1363 46.6112 54.6667 46.6112H61.3334C61.8638 46.6112 62.3725 46.8307 62.7476 47.2214C63.1227 47.6121 63.3334 48.142 63.3334 48.6945V52.8612Z" fill="white"/>
<path d="M58 49.6667C57.7789 49.6667 57.567 49.7326 57.4107 49.8498C57.2544 49.967 57.1666 50.126 57.1666 50.2917V51.5417C57.1666 51.7075 57.2544 51.8665 57.4107 51.9837C57.567 52.1009 57.7789 52.1667 58 52.1667C58.221 52.1667 58.4329 52.1009 58.5892 51.9837C58.7455 51.8665 58.8333 51.7075 58.8333 51.5417V50.2917C58.8333 50.126 58.7455 49.967 58.5892 49.8498C58.4329 49.7326 58.221 49.6667 58 49.6667Z" fill="white"/>
<path d="M83.907 41.3H87.309V56H83.907V41.3ZM77.229 56H73.827V41.3H77.229V56ZM84.159 49.973H76.977V47.096H84.159V49.973ZM94.121 47.222H101.198V49.868H94.121V47.222ZM94.373 53.27H102.374V56H90.992V41.3H102.101V44.03H94.373V53.27ZM108.293 56V43.295L109.07 44.072H103.61V41.3H116.357V44.072H110.897L111.653 43.295V56H108.293ZM134.184 54.488V44.072H129.144L129.081 46.214C129.039 47.124 128.976 47.985 128.892 48.797C128.822 49.609 128.71 50.351 128.556 51.023C128.402 51.681 128.199 52.241 127.947 52.703C127.709 53.165 127.408 53.494 127.044 53.69L123.411 53.228C123.915 53.242 124.328 53.067 124.65 52.703C124.986 52.339 125.252 51.828 125.448 51.17C125.644 50.498 125.784 49.714 125.868 48.818C125.966 47.922 126.036 46.949 126.078 45.899L126.246 41.3H137.544V54.488H134.184ZM122.928 59.045L122.949 53.228H139.602V59.045H136.452V56H126.078V59.045H122.928ZM148.927 56.252C147.765 56.252 146.687 56.063 145.693 55.685C144.713 55.307 143.859 54.775 143.131 54.089C142.417 53.403 141.857 52.598 141.451 51.674C141.059 50.75 140.863 49.742 140.863 48.65C140.863 47.558 141.059 46.55 141.451 45.626C141.857 44.702 142.424 43.897 143.152 43.211C143.88 42.525 144.734 41.993 145.714 41.615C146.694 41.237 147.758 41.048 148.906 41.048C150.068 41.048 151.132 41.237 152.098 41.615C153.078 41.993 153.925 42.525 154.639 43.211C155.367 43.897 155.934 44.702 156.34 45.626C156.746 46.536 156.949 47.544 156.949 48.65C156.949 49.742 156.746 50.757 156.34 51.695C155.934 52.619 155.367 53.424 154.639 54.11C153.925 54.782 153.078 55.307 152.098 55.685C151.132 56.063 150.075 56.252 148.927 56.252ZM148.906 53.354C149.564 53.354 150.166 53.242 150.712 53.018C151.272 52.794 151.762 52.472 152.182 52.052C152.602 51.632 152.924 51.135 153.148 50.561C153.386 49.987 153.505 49.35 153.505 48.65C153.505 47.95 153.386 47.313 153.148 46.739C152.924 46.165 152.602 45.668 152.182 45.248C151.776 44.828 151.293 44.506 150.733 44.282C150.173 44.058 149.564 43.946 148.906 43.946C148.248 43.946 147.639 44.058 147.079 44.282C146.533 44.506 146.05 44.828 145.63 45.248C145.21 45.668 144.881 46.165 144.643 46.739C144.419 47.313 144.307 47.95 144.307 48.65C144.307 49.336 144.419 49.973 144.643 50.561C144.881 51.135 145.203 51.632 145.609 52.052C146.029 52.472 146.519 52.794 147.079 53.018C147.639 53.242 148.248 53.354 148.906 53.354ZM166.521 56.252C165.387 56.252 164.33 56.07 163.35 55.706C162.384 55.328 161.544 54.796 160.83 54.11C160.116 53.424 159.556 52.619 159.15 51.695C158.758 50.771 158.562 49.756 158.562 48.65C158.562 47.544 158.758 46.529 159.15 45.605C159.556 44.681 160.116 43.876 160.83 43.19C161.558 42.504 162.405 41.979 163.371 41.615C164.337 41.237 165.394 41.048 166.542 41.048C167.816 41.048 168.964 41.272 169.986 41.72C171.022 42.154 171.89 42.798 172.59 43.652L170.406 45.668C169.902 45.094 169.342 44.667 168.726 44.387C168.11 44.093 167.438 43.946 166.71 43.946C166.024 43.946 165.394 44.058 164.82 44.282C164.246 44.506 163.749 44.828 163.329 45.248C162.909 45.668 162.58 46.165 162.342 46.739C162.118 47.313 162.006 47.95 162.006 48.65C162.006 49.35 162.118 49.987 162.342 50.561C162.58 51.135 162.909 51.632 163.329 52.052C163.749 52.472 164.246 52.794 164.82 53.018C165.394 53.242 166.024 53.354 166.71 53.354C167.438 53.354 168.11 53.214 168.726 52.934C169.342 52.64 169.902 52.199 170.406 51.611L172.59 53.627C171.89 54.481 171.022 55.132 169.986 55.58C168.964 56.028 167.809 56.252 166.521 56.252ZM177.835 56V43.295L178.612 44.072H173.152V41.3H185.899V44.072H180.439L181.195 43.295V56H177.835ZM187.903 53.228C188.715 53.466 189.394 53.536 189.94 53.438C190.5 53.326 190.997 52.934 191.431 52.262L192.145 51.191L192.46 50.834L197.332 41.3H200.671L194.413 52.934C193.853 53.984 193.188 54.789 192.418 55.349C191.662 55.909 190.829 56.224 189.919 56.294C189.009 56.378 188.064 56.217 187.084 55.811L187.903 53.228ZM192.397 53.669L185.761 41.3H189.394L194.266 51.17L192.397 53.669ZM202.288 56V41.3H215.686V56H212.305V43.295L213.082 44.072H204.892L205.669 43.295V56H202.288ZM217.671 56L224.223 41.3H227.583L234.156 56H230.586L225.21 43.022H226.554L221.157 56H217.671ZM220.947 52.85L221.85 50.267H229.41L230.334 52.85H220.947Z" fill="white"/>
</svg>
