<svg width="14" height="14" viewBox="0 0 14 14" fill="none" xmlns="http://www.w3.org/2000/svg">
<path d="M9.51468 1.70459C8.98165 1.71308 8.46025 1.86549 8.00314 2.14643C7.54602 2.42737 7.16936 2.82688 6.91121 3.30463C6.65306 2.82688 6.27641 2.42737 5.81929 2.14643C5.36217 1.86549 4.84077 1.71308 4.30775 1.70459C3.45805 1.7424 2.65749 2.12315 2.08098 2.76364C1.50446 3.40413 1.19886 4.2523 1.23093 5.12286C1.23093 7.32752 3.49642 9.73534 5.39647 11.3679C5.8207 11.733 6.35708 11.9332 6.91121 11.9332C7.46535 11.9332 8.00172 11.733 8.42596 11.3679C10.326 9.73534 12.5915 7.32752 12.5915 5.12286C12.6236 4.2523 12.318 3.40413 11.7415 2.76364C11.1649 2.12315 10.3644 1.7424 9.51468 1.70459ZM7.81769 10.626C7.56396 10.8449 7.24292 10.9649 6.91121 10.9649C6.57951 10.9649 6.25846 10.8449 6.00473 10.626C3.57263 8.53579 2.17764 6.53041 2.17764 5.12286C2.14528 4.50937 2.35107 3.90767 2.7501 3.44897C3.14914 2.99028 3.70906 2.71182 4.30775 2.67431C4.90644 2.71182 5.46636 2.99028 5.8654 3.44897C6.26443 3.90767 6.47021 4.50937 6.43786 5.12286C6.43786 5.25145 6.48773 5.37478 6.5765 5.46571C6.66527 5.55664 6.78567 5.60772 6.91121 5.60772C7.03676 5.60772 7.15716 5.55664 7.24593 5.46571C7.3347 5.37478 7.38457 5.25145 7.38457 5.12286C7.35221 4.50937 7.55799 3.90767 7.95703 3.44897C8.35607 2.99028 8.91599 2.71182 9.51468 2.67431C10.1134 2.71182 10.6733 2.99028 11.0723 3.44897C11.4714 3.90767 11.6771 4.50937 11.6448 5.12286C11.6448 6.53041 10.2498 8.53579 7.81769 10.6241V10.626Z" fill="black"/>
</svg>
