<svg width="15" height="14" viewBox="0 0 15 14" fill="none" xmlns="http://www.w3.org/2000/svg">
<path d="M1.69766 6.46244C1.766 5.35677 2.1564 4.29526 2.82074 3.40878C3.48508 2.5223 4.39431 1.8496 5.43634 1.47362C6.47837 1.09764 7.60765 1.03481 8.68496 1.29288C9.76227 1.55095 10.7405 2.11864 11.4991 2.92596C12.2577 3.73327 12.7634 4.74493 12.954 5.8362C13.1445 6.92747 13.0116 8.05066 12.5715 9.06729C12.1315 10.0839 11.4035 10.9495 10.4774 11.5575C9.55134 12.1654 8.46761 12.489 7.35982 12.4884H4.06024C3.43384 12.4878 2.83327 12.2387 2.39034 11.7958C1.9474 11.3528 1.69829 10.7523 1.69766 10.1259V6.46244ZM2.64269 10.1259C2.64269 10.5018 2.79204 10.8624 3.05788 11.1282C3.32372 11.3941 3.68428 11.5434 4.06024 11.5434H7.35982C8.02657 11.5431 8.68577 11.4023 9.29444 11.1301C9.90311 10.8579 10.4476 10.4605 10.8923 9.96379C11.3393 9.4673 11.6749 8.881 11.8766 8.2442C12.0784 7.6074 12.1417 6.93482 12.0623 6.27155C11.9369 5.22537 11.4668 4.25069 10.7263 3.50115C9.98573 2.75162 9.01679 2.26986 7.9722 2.13184C7.76843 2.1063 7.56329 2.09336 7.35793 2.09309C6.25674 2.09009 5.18965 2.47484 4.34375 3.17988C3.84972 3.59047 3.44422 4.0971 3.15182 4.66907C2.85941 5.24104 2.68621 5.86643 2.64269 6.50733V10.1259Z" fill="black"/>
</svg>
