<svg width="15" height="15" viewBox="0 0 15 15" fill="none" xmlns="http://www.w3.org/2000/svg">
<path d="M4.50805 6.68141C4.97329 6.68141 5.35045 7.05856 5.35045 7.52381C5.35045 7.98905 4.97329 8.36621 4.50805 8.36621C4.0428 8.36621 3.66565 7.98905 3.66565 7.52381C3.66565 7.05856 4.0428 6.68141 4.50805 6.68141Z" fill="black"/>
<path d="M7.70922 6.68141C8.17447 6.68141 8.55163 7.05856 8.55163 7.52381C8.55163 7.98905 8.17447 8.36621 7.70922 8.36621C7.24398 8.36621 6.86682 7.98905 6.86682 7.52381C6.86682 7.05856 7.24398 6.68141 7.70922 6.68141Z" fill="black"/>
<path d="M10.9103 6.68141C11.3755 6.68141 11.7527 7.05856 11.7527 7.52381C11.7527 7.98905 11.3755 8.36621 10.9103 8.36621C10.445 8.36621 10.0679 7.98905 10.0679 7.52381C10.0679 7.05856 10.445 6.68141 10.9103 6.68141Z" fill="black"/>
</svg>
