<svg width="176" height="48" viewBox="0 0 176 48" fill="none" xmlns="http://www.w3.org/2000/svg">
<rect width="176" height="48" rx="8" fill="#A0BBF2"/>
<path d="M22.816 30.68L14.632 25.76V22.976L22.816 18.056L24.352 21.2L17.992 24.368L24.352 27.536L22.816 30.68ZM29.2489 34.52L25.7209 33.512L30.9529 14.552L34.4569 15.488L29.2489 34.52ZM45.7549 33.176L39.4909 26.936V32H35.4109V18.176C35.7949 17.92 36.3069 17.68 36.9469 17.456C37.6029 17.216 38.3309 17.024 39.1309 16.88C39.9309 16.72 40.7469 16.64 41.5789 16.64C43.6109 16.64 45.1949 17.112 46.3309 18.056C47.4829 19 48.0589 20.304 48.0589 21.968C48.0589 23.232 47.7389 24.288 47.0989 25.136C46.4749 25.984 45.6269 26.608 44.5549 27.008L48.5149 30.2L45.7549 33.176ZM41.7709 24.512C42.4749 24.512 43.0189 24.288 43.4029 23.84C43.7869 23.392 43.9789 22.824 43.9789 22.136C43.9789 21.432 43.7709 20.872 43.3549 20.456C42.9549 20.024 42.3309 19.808 41.4829 19.808C40.6829 19.808 40.0189 19.968 39.4909 20.288V22.16C39.4909 22.912 39.7069 23.496 40.1389 23.912C40.5869 24.312 41.1309 24.512 41.7709 24.512ZM52.2344 32.264C51.5464 32.264 50.9944 32.056 50.5784 31.64C50.1624 31.208 49.9544 30.68 49.9544 30.056C49.9544 29.416 50.1624 28.88 50.5784 28.448C50.9944 28.016 51.5464 27.8 52.2344 27.8C52.9224 27.8 53.4744 28.016 53.8904 28.448C54.3224 28.88 54.5384 29.416 54.5384 30.056C54.5384 30.68 54.3224 31.208 53.8904 31.64C53.4744 32.056 52.9224 32.264 52.2344 32.264ZM56.2178 32L61.4978 16.712H66.3698L71.2418 32H66.8498L65.9378 28.976H61.6178L60.7058 32H56.2178ZM62.5298 25.616H65.2658L63.9938 21.224H63.8978L62.5298 25.616ZM79.9782 32.168C78.4742 32.168 77.1302 31.88 75.9462 31.304C74.7782 30.712 73.8582 29.832 73.1862 28.664C72.5302 27.496 72.2022 26.048 72.2022 24.32C72.2022 21.984 72.8422 20.128 74.1222 18.752C75.4182 17.36 77.3222 16.664 79.8342 16.664C81.1622 16.664 82.3062 16.84 83.2662 17.192C84.2422 17.544 85.0502 17.968 85.6902 18.464L84.4662 21.248C83.9702 20.928 83.3622 20.664 82.6422 20.456C81.9382 20.232 81.2342 20.12 80.5302 20.12C79.2502 20.12 78.2582 20.512 77.5542 21.296C76.8662 22.064 76.5222 23.088 76.5222 24.368C76.5222 25.376 76.7142 26.2 77.0982 26.84C77.4822 27.464 77.9862 27.928 78.6102 28.232C79.2342 28.52 79.8982 28.664 80.6022 28.664C80.9702 28.664 81.2902 28.64 81.5622 28.592C81.8342 28.528 82.0342 28.464 82.1622 28.4V26.096H79.5702V23.024H86.2422V29.792C85.6502 30.496 84.8022 31.072 83.6982 31.52C82.5942 31.952 81.3542 32.168 79.9782 32.168ZM88.6375 32V16.736H99.6295V19.856H92.7175V22.688H98.6935V25.808H92.7175V28.88H99.7735V32H88.6375ZM101.927 32V16.736H106.463L111.527 26.144V16.736H115.607V32H110.951L106.007 22.952V32H101.927ZM125.445 32.096C123.925 32.096 122.589 31.808 121.437 31.232C120.285 30.64 119.381 29.76 118.725 28.592C118.085 27.424 117.765 25.976 117.765 24.248C117.765 21.912 118.389 20.064 119.637 18.704C120.885 17.328 122.741 16.64 125.205 16.64C126.069 16.64 126.925 16.736 127.773 16.928C128.637 17.12 129.437 17.432 130.173 17.864L129.093 20.888C128.709 20.648 128.229 20.464 127.653 20.336C127.077 20.192 126.525 20.12 125.997 20.12C124.749 20.12 123.781 20.504 123.093 21.272C122.421 22.024 122.085 23.04 122.085 24.32C122.085 25.728 122.469 26.8 123.237 27.536C124.021 28.256 125.029 28.616 126.261 28.616C126.949 28.616 127.597 28.512 128.205 28.304C128.813 28.096 129.341 27.84 129.789 27.536L131.037 30.224C130.445 30.672 129.709 31.096 128.829 31.496C127.949 31.896 126.821 32.096 125.445 32.096ZM138.688 32V26.264L132.712 16.736H137.488L140.704 22.4H140.848L143.848 16.736H148.576L143.272 26.12V32H138.688ZM152.457 30.68L150.921 27.536L157.281 24.368L150.921 21.2L152.457 18.056L160.641 22.976V25.76L152.457 30.68Z" fill="white"/>
</svg>
