<svg width="176" height="48" viewBox="0 0 176 48" fill="none" xmlns="http://www.w3.org/2000/svg">
<rect width="176" height="48" rx="8" fill="#A0BBF2"/>
<path d="M47.816 30.68L39.632 25.76V22.976L47.816 18.056L49.352 21.2L42.992 24.368L49.352 27.536L47.816 30.68ZM54.2489 34.52L50.7209 33.512L55.9529 14.552L59.4569 15.488L54.2489 34.52ZM60.4109 32V16.736H64.4909V22.808H69.2189V16.736H73.2989V32H69.2189V26.048H64.4909V32H60.4109ZM83.2042 32.096C81.6042 32.096 80.2202 31.792 79.0522 31.184C77.9002 30.56 77.0122 29.672 76.3882 28.52C75.7642 27.368 75.4522 25.992 75.4522 24.392C75.4522 22.792 75.7642 21.416 76.3882 20.264C77.0122 19.096 77.9002 18.2 79.0522 17.576C80.2202 16.952 81.6042 16.64 83.2042 16.64C84.8042 16.64 86.1642 16.952 87.2842 17.576C88.4202 18.2 89.2842 19.096 89.8762 20.264C90.4682 21.416 90.7642 22.792 90.7642 24.392C90.7642 26.792 90.1002 28.68 88.7722 30.056C87.4602 31.416 85.6042 32.096 83.2042 32.096ZM83.2042 28.64C84.2922 28.64 85.1162 28.288 85.6762 27.584C86.2522 26.864 86.5402 25.808 86.5402 24.416C86.5402 23.024 86.2522 21.96 85.6762 21.224C85.1162 20.472 84.2922 20.096 83.2042 20.096C82.1162 20.096 81.2522 20.472 80.6122 21.224C79.9882 21.96 79.6762 23.024 79.6762 24.416C79.6762 25.808 79.9882 26.864 80.6122 27.584C81.2522 28.288 82.1162 28.64 83.2042 28.64ZM92.6788 32L94.1188 16.736H98.9188L102.063 25.256L102.135 25.544L102.183 25.256L105.495 16.736H110.295L111.495 32H107.175L106.695 22.76L106.623 22.352H106.575L106.455 22.76L103.575 30.56H100.695L97.7908 22.76L97.6948 22.352H97.6228L97.5508 22.76L96.9988 32H92.6788ZM113.661 32V16.736H124.653V19.856H117.741V22.688H123.717V25.808H117.741V28.88H124.797V32H113.661ZM128.918 30.68L127.382 27.536L133.742 24.368L127.382 21.2L128.918 18.056L137.102 22.976V25.76L128.918 30.68Z" fill="white"/>
</svg>
