<svg width="14" height="14" viewBox="0 0 14 14" fill="none" xmlns="http://www.w3.org/2000/svg">
<g clip-path="url(#clip0_9_297)">
<path d="M12.0912 1.55411C11.9214 1.38227 11.7102 1.25712 11.4779 1.19076C11.2457 1.1244 11.0002 1.11906 10.7653 1.17527L3.18852 2.77112C2.75218 2.83096 2.34121 3.01144 2.0019 3.29222C1.66259 3.57301 1.40841 3.94295 1.26798 4.36038C1.12756 4.77782 1.10647 5.22617 1.20709 5.65494C1.3077 6.08372 1.52603 6.47589 1.83749 6.78728L2.65104 7.60037C2.69507 7.64438 2.72999 7.69666 2.7538 7.75419C2.77761 7.81172 2.78984 7.87338 2.78979 7.93564V9.43584C2.79084 9.64677 2.83939 9.85476 2.93185 10.0443L2.92807 10.0477L2.94038 10.06C3.07913 10.339 3.30576 10.5646 3.58535 10.7021L3.59766 10.7144L3.60098 10.7106C3.79057 10.8031 3.99855 10.8516 4.20949 10.8527H5.70969C5.8352 10.8526 5.95562 10.9023 6.04449 10.991L6.85757 11.804C7.07565 12.0245 7.33521 12.1997 7.6213 12.3194C7.90738 12.4391 8.21433 12.501 8.52446 12.5016C8.7829 12.5013 9.03957 12.459 9.2845 12.3766C9.69812 12.2408 10.0656 11.9921 10.3454 11.6585C10.6252 11.325 10.8062 10.9199 10.868 10.489L12.4663 2.89567C12.5254 2.65872 12.5219 2.41048 12.4562 2.17529C12.3904 1.9401 12.2646 1.72604 12.0912 1.55411ZM3.32158 6.93172L2.50756 6.11863C2.318 5.93365 2.18515 5.69843 2.12459 5.44059C2.06403 5.18275 2.07828 4.91298 2.16565 4.66295C2.25037 4.40644 2.40698 4.17966 2.61685 4.00958C2.82672 3.8395 3.08103 3.73327 3.34952 3.70354L10.851 2.12426L3.73594 9.24026V7.93564C3.73666 7.74922 3.70041 7.56451 3.62928 7.39219C3.55816 7.21987 3.45358 7.06336 3.32158 6.93172ZM9.93752 10.3271C9.90116 10.5886 9.79262 10.8349 9.62408 11.0382C9.45554 11.2414 9.23368 11.3937 8.98339 11.4779C8.7331 11.5621 8.46429 11.5749 8.20715 11.5148C7.95 11.4547 7.71469 11.3242 7.52764 11.1378L6.71314 10.3233C6.58166 10.1911 6.42529 10.0863 6.25305 10.0149C6.08081 9.94353 5.89613 9.90702 5.70969 9.90749H4.40506L11.5211 2.79385L9.93752 10.3271Z" fill="black"/>
</g>
<defs>
<clipPath id="clip0_9_297">
<rect width="11.3652" height="11.3652" fill="white" transform="translate(1.14319 1.13672)"/>
</clipPath>
</defs>
</svg>
