<svg width="15" height="14" viewBox="0 0 15 14" fill="none" xmlns="http://www.w3.org/2000/svg">
<path d="M11.4923 12.5002C11.3203 12.4997 11.1501 12.4646 10.9916 12.3967C10.833 12.3288 10.6892 12.2297 10.5685 12.1049L7.70916 9.21002L4.84983 12.1068C4.66619 12.2965 4.43069 12.4255 4.17401 12.4769C3.91733 12.5284 3.65139 12.4998 3.41086 12.3951C3.16794 12.2956 2.96013 12.1238 2.81457 11.9022C2.669 11.6805 2.59245 11.4193 2.59491 11.1527V3.50412C2.59491 2.87624 2.83982 2.27409 3.27578 1.83011C3.71174 1.38614 4.30303 1.13672 4.91957 1.13672L10.4988 1.13672C10.804 1.13672 11.1063 1.19795 11.3884 1.31693C11.6704 1.4359 11.9267 1.61028 12.1425 1.83011C12.3584 2.04995 12.5296 2.31093 12.6465 2.59815C12.7633 2.88538 12.8234 3.19322 12.8234 3.50412V11.1527C12.826 11.4191 12.7497 11.6802 12.6045 11.9018C12.4593 12.1234 12.2519 12.2953 12.0093 12.3951C11.8456 12.4649 11.6698 12.5006 11.4923 12.5002ZM4.91957 2.08368C4.54964 2.08368 4.19487 2.23333 3.9333 2.49971C3.67172 2.7661 3.52477 3.12739 3.52477 3.50412V11.1527C3.5246 11.2316 3.5474 11.3088 3.59028 11.3745C3.63316 11.4402 3.6942 11.4915 3.76569 11.5219C3.83719 11.5523 3.91592 11.5604 3.99195 11.5453C4.06799 11.5301 4.13791 11.4924 4.19288 11.4368L7.38371 8.20719C7.47082 8.119 7.58866 8.0695 7.71149 8.0695C7.83432 8.0695 7.95215 8.119 8.03926 8.20719L11.2264 11.4358C11.2814 11.4914 11.3513 11.5292 11.4273 11.5443C11.5033 11.5595 11.5821 11.5513 11.6536 11.5209C11.7251 11.4905 11.7861 11.4393 11.829 11.3735C11.8719 11.3078 11.8947 11.2307 11.8945 11.1518V3.50412C11.8945 3.12739 11.7475 2.7661 11.486 2.49971C11.2244 2.23333 10.8696 2.08368 10.4997 2.08368H4.91957Z" fill="black"/>
</svg>
